name rise42.5664peak47.7979fall81.9185.mot
datacolumns 19
datarows 20
range 20.53825900000000 20.56993000000000
endheader
time	ground_force1_vx	ground_force1_vy	ground_force1_vz	ground_force1_px	ground_force1_py	ground_force1_pz	ground_force2_vx	ground_force2_vy	ground_force2_vz	ground_force2_px	ground_force2_py	ground_force2_pz	ground_torque1_x	ground_torque1_y	ground_torque1_z	ground_torque2_x	ground_torque2_y	ground_torque2_z	
20.53825900000000	-7.45993000000000	41.27942300000000	-10.64387300000000	0.32595600000000	0.00000000000000	0.07154900000000	-45.66506900000000	794.35100599999998	-48.27514100000000	0.12810600000000	0.00000000000000	-0.07946600000000	0.00000000000000	-7.08291700000000	0.00000000000000	0.00000000000000	-18.74801800000000	0.00000000000000	
20.53992100000000	-8.19583000000000	48.28019900000000	-11.98380100000000	0.33071100000000	0.00000000000000	0.07235900000000	-46.23645600000000	791.71494800000005	-47.86845800000000	0.12739700000000	0.00000000000000	-0.07939400000000	0.00000000000000	-8.04563400000000	0.00000000000000	0.00000000000000	-18.65727300000000	0.00000000000000	
20.54158900000000	-8.79383100000000	55.34270300000000	-13.20709900000000	0.33499500000000	0.00000000000000	0.07310300000000	-46.81723300000000	788.93677400000001	-47.43592200000000	0.12669200000000	0.00000000000000	-0.07931800000000	0.00000000000000	-8.94237200000000	0.00000000000000	0.00000000000000	-18.56577200000000	0.00000000000000	
20.54326600000000	-9.23337700000000	62.37406800000000	-14.28581300000000	0.33887400000000	0.00000000000000	0.07379100000000	-47.40680200000000	786.01405099999999	-46.97736500000000	0.12599000000000	0.00000000000000	-0.07923900000000	0.00000000000000	-9.75273400000000	0.00000000000000	0.00000000000000	-18.47349400000000	0.00000000000000	
20.54493000000000	-9.50204700000000	69.30484600000000	-15.20137700000000	0.34240200000000	0.00000000000000	0.07442900000000	-48.00447400000000	782.94436399999995	-46.49265900000000	0.12529100000000	0.00000000000000	-0.07915700000000	0.00000000000000	-10.46258400000000	0.00000000000000	0.00000000000000	-18.38040800000000	0.00000000000000	
20.54659800000000	-9.59546200000000	76.09106700000000	-15.94474900000000	0.34562300000000	0.00000000000000	0.07502600000000	-48.60947600000000	779.72532400000000	-45.98171500000000	0.12459300000000	0.00000000000000	-0.07907100000000	0.00000000000000	-11.06427300000000	0.00000000000000	0.00000000000000	-18.28646800000000	0.00000000000000	
20.54825300000000	-9.51654100000000	82.71386200000001	-16.51574200000000	0.34857600000000	0.00000000000000	0.07558700000000	-49.22094200000000	776.35457299999996	-45.44448700000000	0.12389900000000	0.00000000000000	-0.07898200000000	0.00000000000000	-11.55629200000000	0.00000000000000	0.00000000000000	-18.19162100000000	0.00000000000000	
20.54993100000000	-9.27430100000000	89.17708500000001	-16.92175100000000	0.35129200000000	0.00000000000000	0.07611600000000	-49.83791700000000	772.82979200000000	-44.88097500000000	0.12320600000000	0.00000000000000	-0.07889000000000	0.00000000000000	-11.94248200000000	0.00000000000000	0.00000000000000	-18.09580000000000	0.00000000000000	
20.55159200000000	-8.88235300000000	95.50347400000000	-17.17607000000000	0.35379700000000	0.00000000000000	0.07661700000000	-50.45936000000000	769.14870599999995	-44.29122500000000	0.12251500000000	0.00000000000000	-0.07879400000000	0.00000000000000	-12.23093400000000	0.00000000000000	0.00000000000000	-17.99892700000000	0.00000000000000	
20.55325800000000	-8.35729600000000	101.72992700000000	-17.29602600000000	0.35611400000000	0.00000000000000	0.07709200000000	-51.08414100000000	765.30909099999997	-43.67533100000000	0.12182700000000	0.00000000000000	-0.07869500000000	0.00000000000000	-12.43272900000000	0.00000000000000	0.00000000000000	-17.90091500000000	0.00000000000000	
20.55493200000000	-7.71713700000000	107.90244000000000	-17.30110400000000	0.35826300000000	0.00000000000000	0.07754600000000	-51.71104200000000	761.30878700000005	-43.03343800000000	0.12114000000000	0.00000000000000	-0.07859300000000	0.00000000000000	-12.56065000000000	0.00000000000000	0.00000000000000	-17.80166400000000	0.00000000000000	
20.55658800000000	-6.97987600000000	114.07117200000000	-17.21122000000000	0.36025900000000	0.00000000000000	0.07797900000000	-52.33876500000000	757.14569900000004	-42.36574700000000	0.12045500000000	0.00000000000000	-0.07848700000000	0.00000000000000	-12.62798000000000	0.00000000000000	0.00000000000000	-17.70106600000000	0.00000000000000	
20.55825500000000	-6.16233200000000	120.28601100000000	-17.04526000000000	0.36211900000000	0.00000000000000	0.07839400000000	-52.96592700000000	752.81781200000000	-41.67251100000000	0.11977200000000	0.00000000000000	-0.07837800000000	0.00000000000000	-12.64746100000000	0.00000000000000	0.00000000000000	-17.59900200000000	0.00000000000000	
20.55992900000000	-5.27926600000000	126.59290700000000	-16.81994600000000	0.36385400000000	0.00000000000000	0.07879200000000	-53.59106700000000	748.32319800000005	-40.95404100000000	0.11909000000000	0.00000000000000	-0.07826500000000	0.00000000000000	-12.63048300000000	0.00000000000000	0.00000000000000	-17.49534400000000	0.00000000000000	
20.56158700000000	-4.34281600000000	133.03111899999999	-16.54906600000000	0.36547500000000	0.00000000000000	0.07917500000000	-54.21265000000000	743.66002500000002	-40.21070600000000	0.11841100000000	0.00000000000000	-0.07814900000000	0.00000000000000	-12.58650600000000	0.00000000000000	0.00000000000000	-17.38995700000000	0.00000000000000	
20.56325600000000	-3.36222600000000	139.63141400000001	-16.24306000000000	0.36699300000000	0.00000000000000	0.07954400000000	-54.82906700000000	738.82657099999994	-39.44293400000000	0.11773400000000	0.00000000000000	-0.07802900000000	0.00000000000000	-12.52274300000000	0.00000000000000	0.00000000000000	-17.28269600000000	0.00000000000000	
20.56493900000000	-2.34384600000000	146.41520600000001	-15.90892800000000	0.36841600000000	0.00000000000000	0.07990000000000	-55.43864100000000	733.82123200000001	-38.65121500000000	0.11705900000000	0.00000000000000	-0.07790600000000	0.00000000000000	-12.44406100000000	0.00000000000000	0.00000000000000	-17.17340900000000	0.00000000000000	
20.56658700000000	-1.29135000000000	153.39450700000000	-15.55042100000000	0.36975100000000	0.00000000000000	0.08024400000000	-56.03963400000000	728.64253599999995	-37.83610200000000	0.11638700000000	0.00000000000000	-0.07777900000000	0.00000000000000	-12.35308200000000	0.00000000000000	0.00000000000000	-17.06193700000000	0.00000000000000	
20.56825600000000	-0.20611600000000	160.57255799999999	-15.16842200000000	0.37100400000000	0.00000000000000	0.08057600000000	-56.63024900000000	723.28915700000005	-36.99820900000000	0.11571700000000	0.00000000000000	-0.07764900000000	0.00000000000000	-12.25043100000000	0.00000000000000	0.00000000000000	-16.94811700000000	0.00000000000000	
20.56993000000000	0.91229100000000	167.94496500000000	-14.76149400000000	0.37218300000000	0.00000000000000	0.08089800000000	-57.20863300000000	717.75992499999995	-36.13821400000000	0.11505000000000	0.00000000000000	-0.07751500000000	0.00000000000000	-12.13509400000000	0.00000000000000	0.00000000000000	-16.83177600000000	0.00000000000000	
